<svg width="138" height="58" viewBox="0 0 138 58" fill="none" xmlns="http://www.w3.org/2000/svg">
<path d="M138 13.752C138 16.2837 137.358 18.7579 136.309 21.0595C132.576 29.3452 124.06 35.502 124.06 35.502C124.06 35.502 115.544 29.2877 111.812 21.0595C110.762 18.7579 110.12 16.2837 110.12 13.752C110.12 6.15675 116.361 0 124.06 0C131.759 0 138 6.15675 138 13.752Z" fill="#FF3145"/>
<path d="M129.134 15.3058C128.843 15.5935 128.726 15.9963 128.784 16.399L129.309 19.5062C129.484 20.5419 128.434 21.2899 127.501 20.8296L124.643 19.3336C124.293 19.1609 123.827 19.1609 123.477 19.3336L120.619 20.8296C119.685 21.2899 118.636 20.5419 118.811 19.5062L119.335 16.399C119.394 15.9963 119.277 15.5935 118.986 15.3058L116.711 13.1193C115.953 12.3713 116.361 11.1629 117.411 10.9903L120.619 10.53C121.027 10.4724 121.377 10.2423 121.552 9.83951L122.952 7.02007C123.418 6.09943 124.76 6.09943 125.226 7.02007L126.626 9.83951C126.801 10.1847 127.151 10.4724 127.559 10.53L130.767 10.9903C131.817 11.1054 132.226 12.3713 131.467 13.1193L129.134 15.3058Z" fill="white"/>
<path d="M0 28.1367H5.24937V42.2915H14.0566V46.3768H0V28.1367Z" fill="#151515"/>
<path d="M30.3878 40.5657H19.9474C20.1807 41.3137 20.589 41.8316 21.1723 42.2343C21.7555 42.6371 22.5138 42.8097 23.447 42.8097C24.1469 42.8097 24.7302 42.6946 25.2551 42.522C25.7801 42.3494 26.2467 42.0042 26.7716 41.6014L29.3963 44.3058C27.9965 45.8593 25.955 46.6073 23.272 46.6073C21.5806 46.6073 20.1224 46.3196 18.8392 45.6867C17.5561 45.0538 16.5645 44.1907 15.9229 43.0974C15.223 42.0042 14.873 40.7383 14.873 39.2998C14.873 37.9189 15.223 36.653 15.8646 35.5597C16.5645 34.4665 17.4977 33.6034 18.6643 32.9704C19.8891 32.3375 21.2306 32.0498 22.6888 32.0498C24.0886 32.0498 25.4301 32.3375 26.5966 32.9129C27.7632 33.4883 28.6964 34.3514 29.338 35.4446C30.0379 36.5379 30.3295 37.8613 30.3295 39.3573C30.4462 39.3573 30.4462 39.7601 30.3878 40.5657ZM20.8807 36.1927C20.3557 36.653 20.0058 37.2284 19.8891 37.9764H25.7801C25.6634 37.2284 25.3135 36.653 24.7885 36.1927C24.2636 35.7323 23.622 35.5597 22.8637 35.5597C22.0472 35.5597 21.4056 35.7323 20.8807 36.1927Z" fill="#151515"/>
<path d="M42.6363 45.8017C42.228 46.0894 41.7031 46.2621 41.1198 46.3771C40.5366 46.4922 39.8367 46.6073 39.1951 46.6073C37.3286 46.6073 35.8705 46.147 34.8789 45.2263C33.8874 44.3057 33.3624 42.9823 33.3624 41.1986V36.4803H31.2627V32.7978H33.3624V29.1152H38.3785V32.7978H41.6448V36.4803H38.3785V41.141C38.3785 41.6589 38.4952 42.0617 38.7868 42.3494C39.0784 42.6371 39.4284 42.7521 39.895 42.7521C40.4783 42.7521 41.0032 42.5795 41.4115 42.2918L42.6363 45.8017Z" fill="#151515"/>
<path d="M48.8773 27.619C49.4606 28.1369 49.6939 28.8849 49.6939 29.748C49.6939 30.1508 49.6355 30.5536 49.5189 30.9563C49.4022 31.3591 49.1689 31.9345 48.819 32.7401L47.1275 36.5377H43.9779L45.2027 32.2797C44.7361 32.0496 44.3278 31.7044 44.0362 31.3016C43.7446 30.8413 43.6279 30.3234 43.6279 29.748C43.6279 28.8849 43.9196 28.1944 44.4445 27.619C45.0278 27.1012 45.7277 26.8135 46.6026 26.8135C47.5941 26.8135 48.294 27.1012 48.8773 27.619Z" fill="#FF3145"/>
<path d="M53.1937 46.2045C52.0272 45.9168 51.094 45.5716 50.394 45.1688L51.9105 41.7739C52.5521 42.1767 53.3104 42.4644 54.2436 42.7521C55.1185 42.9823 56.0517 43.0973 56.9266 43.0973C57.7432 43.0973 58.3264 43.0398 58.6764 42.8672C59.0263 42.6946 59.2013 42.4644 59.2013 42.1767C59.2013 41.889 58.968 41.6589 58.5597 41.4862C58.1514 41.3712 57.5098 41.2561 56.5766 41.0835C55.4101 40.9684 54.4769 40.7382 53.6603 40.5081C52.8437 40.2779 52.1438 39.8751 51.5606 39.2422C50.9773 38.6093 50.6857 37.8037 50.6857 36.7104C50.6857 35.7898 50.9773 34.9843 51.5022 34.2938C52.0272 33.6033 52.8437 33.0279 53.8936 32.6251C54.9435 32.2223 56.1683 31.9922 57.6848 31.9922C58.7347 31.9922 59.7262 32.1073 60.7761 32.2799C61.826 32.51 62.6426 32.7977 63.3425 33.143L61.826 36.4803C60.5428 35.7898 59.2013 35.4446 57.6848 35.4446C56.8683 35.4446 56.285 35.5596 55.935 35.7323C55.5851 35.9049 55.3518 36.135 55.3518 36.4227C55.3518 36.768 55.5268 36.9981 55.935 37.1132C56.3433 37.2283 56.9849 37.4009 57.9181 37.516C59.0847 37.6886 60.0762 37.8612 60.8344 38.0914C61.5927 38.3216 62.2926 38.7243 62.8759 39.3573C63.4591 39.9327 63.7508 40.7958 63.7508 41.889C63.7508 42.7521 63.4591 43.5577 62.9342 44.2481C62.4093 44.9386 61.5927 45.514 60.5428 45.9168C59.4929 46.3196 58.2098 46.4922 56.6933 46.4922C55.5268 46.6073 54.3602 46.4922 53.1937 46.2045Z" fill="#151515"/>
<path d="M86.323 36.8827H90.9308V44.4204C89.8809 45.1684 88.6561 45.7438 87.3146 46.1466C85.9147 46.5494 84.5732 46.722 83.1734 46.722C81.2486 46.722 79.4989 46.3192 77.924 45.5136C76.3492 44.7081 75.1827 43.5573 74.3078 42.1188C73.4329 40.6803 72.9663 39.0692 72.9663 37.2279C72.9663 35.3867 73.4329 33.7756 74.3078 32.3371C75.1827 30.8986 76.4076 29.7478 77.9824 28.9422C79.5572 28.1367 81.307 27.7339 83.2901 27.7339C85.0399 27.7339 86.5563 28.0216 87.9562 28.597C89.356 29.1724 90.4642 29.9779 91.3974 31.0712L88.0728 34.0633C86.848 32.6823 85.3315 32.0494 83.5817 32.0494C82.0069 32.0494 80.7237 32.5097 79.7322 33.4879C78.7406 34.4085 78.274 35.6744 78.274 37.2855C78.274 38.3212 78.5073 39.1843 78.9156 39.9898C79.3822 40.7954 79.9655 41.3708 80.782 41.8311C81.5986 42.2914 82.4735 42.5216 83.5234 42.5216C84.5149 42.5216 85.4481 42.349 86.323 41.9462V36.8827Z" fill="#151515"/>
<path d="M98.2797 45.5136C96.7049 44.7081 95.4801 43.5573 94.6052 42.1188C93.7303 40.6803 93.2637 39.0692 93.2637 37.2279C93.2637 35.4442 93.7303 33.7756 94.6052 32.3371C95.4801 30.8986 96.7049 29.7478 98.2797 28.9422C99.8545 28.1367 101.604 27.7339 103.529 27.7339C105.454 27.7339 107.262 28.1367 108.778 28.9422C110.353 29.7478 111.578 30.8986 112.453 32.3371C113.328 33.7756 113.795 35.3867 113.795 37.2279C113.795 39.0117 113.328 40.6803 112.453 42.1188C111.578 43.5573 110.353 44.7081 108.778 45.5136C107.204 46.3192 105.454 46.722 103.529 46.722C101.604 46.722 99.8545 46.3192 98.2797 45.5136ZM106.095 41.8311C106.854 41.3708 107.437 40.7954 107.904 39.9898C108.37 39.1843 108.545 38.2636 108.545 37.2855C108.545 36.2498 108.312 35.3291 107.904 34.5811C107.437 33.7756 106.854 33.2002 106.095 32.7398C105.337 32.2795 104.521 32.1069 103.587 32.1069C102.654 32.1069 101.838 32.3371 101.079 32.7398C100.321 33.2002 99.7379 33.7756 99.2713 34.5811C98.8047 35.3867 98.6297 36.3073 98.6297 37.2855C98.6297 38.3212 98.863 39.2418 99.2713 39.9898C99.7379 40.7954 100.321 41.3708 101.079 41.8311C101.838 42.2914 102.654 42.464 103.587 42.464C104.521 42.464 105.337 42.2339 106.095 41.8311Z" fill="#151515"/>
</svg>
